<?xml version="1.0" encoding="UTF-8" standalone="no"?>
<svg
   xmlns:dc="http://purl.org/dc/elements/1.1/"
   xmlns:cc="http://creativecommons.org/ns#"
   xmlns:rdf="http://www.w3.org/1999/02/22-rdf-syntax-ns#"
   xmlns:svg="http://www.w3.org/2000/svg"
   xmlns="http://www.w3.org/2000/svg"
   xmlns:sodipodi="http://sodipodi.sourceforge.net/DTD/sodipodi-0.dtd"
   xmlns:inkscape="http://www.inkscape.org/namespaces/inkscape"
   width="264.58313mm"
   height="62.629562mm"
   viewBox="0 0 264.58313 62.629562"
   version="1.1"
   id="svg8"
   inkscape:version="1.0.1 (3bc2e813f5, 2020-09-07)"
   sodipodi:docname="brush.svg">
  <defs
     id="defs2" />
  <sodipodi:namedview
     id="base"
     pagecolor="#ffffff"
     bordercolor="#666666"
     borderopacity="1.0"
     inkscape:pageopacity="0.0"
     inkscape:pageshadow="2"
     inkscape:zoom="0.35"
     inkscape:cx="1240.0001"
     inkscape:cy="212.6415"
     inkscape:document-units="mm"
     inkscape:current-layer="layer1"
     inkscape:document-rotation="0"
     showgrid="false"
     fit-margin-top="0"
     fit-margin-left="0"
     fit-margin-right="0"
     fit-margin-bottom="0"
     inkscape:window-width="1267"
     inkscape:window-height="729"
     inkscape:window-x="52"
     inkscape:window-y="0"
     inkscape:window-maximized="0" />
  <metadata
     id="metadata5">
    <rdf:RDF>
      <cc:Work
         rdf:about="">
        <dc:format>image/svg+xml</dc:format>
        <dc:type
           rdf:resource="http://purl.org/dc/dcmitype/StillImage" />
        <dc:title></dc:title>
      </cc:Work>
    </rdf:RDF>
  </metadata>
  <g
     inkscape:label="Layer 1"
     inkscape:groupmode="layer"
     id="layer1"
     transform="translate(222.25001,-91.905271)">
    <path
       d="m -171.00009,154.20742 c -1.31447,-0.0896 -3.52917,-0.22193 -4.92154,-0.29404 -4.95712,-0.2567 -8.02207,-0.44366 -8.43667,-0.51463 -0.23136,-0.0396 -1.14818,-0.12167 -2.03738,-0.18235 -0.8892,-0.0607 -1.83735,-0.15689 -2.107,-0.21378 -0.26965,-0.0569 -0.90144,-0.13311 -1.40398,-0.16938 -1.65754,-0.11964 -3.18054,-0.35025 -4.3869,-0.66427 -0.46756,-0.12171 -0.91322,-0.18447 -0.99035,-0.13948 -0.0771,0.045 -0.0972,0.0159 -0.0445,-0.0646 0.0648,-0.0991 -0.40326,-0.1646 -1.44872,-0.20273 -0.84945,-0.031 -1.63818,-0.0951 -1.75273,-0.1424 -0.11456,-0.0473 -0.24404,-0.30767 -0.28774,-0.57851 -0.0904,-0.56002 -0.23836,-0.64623 -1.58214,-0.92163 -0.50085,-0.10264 -1.2875,-0.31906 -1.74812,-0.48093 -0.46061,-0.16187 -1.00384,-0.33061 -1.20717,-0.37499 -0.58055,-0.1267 -0.57026,-0.43783 0.034,-1.02959 0.63546,-0.62227 1.13643,-0.88141 2.156,-1.11522 0.66109,-0.1516 1.56572,-0.78013 1.5737,-1.0934 0.003,-0.10523 -0.60322,-0.30972 -1.46611,-0.49482 -0.2311,-0.0496 -0.98879,-0.13969 -1.68375,-0.20027 -0.69496,-0.0606 -1.61916,-0.21202 -2.05378,-0.33653 -0.48304,-0.13839 -1.45428,-0.24331 -2.49848,-0.26991 -1.85441,-0.0472 -2.64739,-0.26702 -2.76443,-0.76619 -0.0396,-0.16909 -0.38575,-0.43664 -0.87995,-0.68025 -0.44802,-0.22086 -0.78074,-0.45333 -0.73936,-0.51662 0.0414,-0.0633 -0.008,-0.0884 -0.10962,-0.0558 -0.45665,0.14644 -1.13655,-0.17651 -1.37729,-0.65421 -0.26238,-0.52065 -0.13881,-1.00076 0.25498,-0.99073 0.11339,0.003 0.20787,-0.0422 0.20996,-0.10027 0.002,-0.058 0.43126,-0.11291 0.95371,-0.12192 0.52244,-0.009 0.97256,-0.0768 1.00026,-0.15056 0.0277,-0.0738 0.16801,-0.13117 0.3118,-0.1275 0.1438,0.004 0.3022,-0.0557 0.35201,-0.13186 0.0498,-0.0762 0.1539,-0.13691 0.2313,-0.13494 0.0774,0.002 0.1085,0.0529 0.0691,0.11317 -0.0394,0.0603 0.11398,0.11185 0.34085,0.11461 0.24361,0.003 0.41442,-0.0705 0.41719,-0.17951 0.003,-0.1015 0.067,-0.14378 0.14322,-0.094 0.0762,0.0498 0.14006,0.0303 0.14194,-0.0434 0.005,-0.21712 -0.36082,-0.30575 -1.00869,-0.24403 -0.33336,0.0318 -0.88927,-0.0215 -1.23535,-0.11855 -0.34608,-0.097 -0.72377,-0.19712 -0.8393,-0.22259 -0.11554,-0.0255 -0.32063,-0.0968 -0.45577,-0.15842 -0.13514,-0.0617 -0.3722,-0.0824 -0.52679,-0.0462 -0.35953,0.0843 -0.47734,-0.11034 -0.19934,-0.32934 0.11769,-0.0927 0.21354,-0.1133 0.21301,-0.0457 -5.3e-4,0.0676 0.0472,0.0607 0.10601,-0.0153 0.18098,-0.23361 0.74964,-0.48852 0.74571,-0.33427 -0.002,0.0781 0.0635,0.14364 0.14543,0.14573 0.082,0.002 0.11939,-0.047 0.0831,-0.10918 -0.0935,-0.16029 1.03652,-0.15678 1.31955,0.004 0.15117,0.0859 0.29369,0.0779 0.39927,-0.0224 0.18958,-0.18016 0.75687,-0.23989 0.64439,-0.0678 -0.13108,0.20049 0.32159,0.13395 0.50329,-0.074 0.12938,-0.14805 0.26306,-0.16272 0.52078,-0.0572 0.44546,0.18248 0.59684,0.18215 0.33201,-5.3e-4 -0.15557,-0.10742 -0.0842,-0.13738 0.28471,-0.11953 0.27076,0.0131 0.96911,-0.0358 1.55189,-0.10861 0.58277,-0.0728 1.22917,-0.13661 1.43643,-0.14173 0.61625,-0.0152 0.45107,-0.48967 -0.37125,-1.06636 -0.46981,-0.32948 -0.69199,-0.57471 -0.63832,-0.70457 0.0524,-0.12685 0.13906,-0.15162 0.23857,-0.0682 0.0859,0.0721 0.28422,0.0832 0.44062,0.0247 0.1564,-0.0585 0.52051,-0.10472 0.80914,-0.10281 0.4062,0.003 0.58214,-0.0794 0.77866,-0.36329 0.31922,-0.46113 0.36524,-0.72232 0.18901,-1.07279 -0.0765,-0.15216 -0.0819,-0.23924 -0.0119,-0.19351 0.0699,0.0457 0.2169,-0.14884 0.32657,-0.43238 0.10966,-0.28355 0.27081,-0.56027 0.35811,-0.61496 0.0873,-0.0547 -0.0946,-0.10781 -0.40412,-0.11807 -0.41573,-0.0138 -0.50676,-0.0529 -0.34826,-0.1497 0.16273,-0.0994 0.10361,-0.13439 -0.24468,-0.1449 -0.25259,-0.008 -0.56776,-0.074 -0.70039,-0.14747 -0.13262,-0.0735 -0.82293,-0.38263 -1.53401,-0.68698 -1.42606,-0.61038 -2.25549,-0.76235 -5.28734,-0.96874 -2.32343,-0.15816 -2.58444,-0.19355 -2.94857,-0.39972 -0.37068,-0.20987 -2.28668,-0.54942 -3.50359,-0.6209 -0.63787,-0.0375 -1.20494,-0.16597 -1.61107,-0.36507 -0.34471,-0.169 -0.94194,-0.35797 -1.32719,-0.41996 -0.76612,-0.12326 -1.74684,-0.49861 -1.74255,-0.66693 0.002,-0.0584 0.36991,-0.21641 0.81872,-0.35113 0.68967,-0.20702 1.27361,-0.23487 3.77177,-0.17985 1.99554,0.0439 3.13142,0.0112 3.49646,-0.10066 0.52716,-0.16159 1.03212,-0.12427 2.31914,0.17139 0.33174,0.0762 1.27529,0.16724 2.09677,0.20228 0.82148,0.035 1.61416,0.13225 1.76152,0.21601 0.15755,0.0896 0.48033,0.11362 0.78359,0.0584 0.28362,-0.0516 0.57127,-0.079 0.63923,-0.0608 0.25105,0.0673 4.53646,0.13248 5.01394,0.0763 0.80946,-0.0953 1.82528,-0.1535 3.2251,-0.18492 0.72597,-0.0163 1.39027,-0.0964 1.47621,-0.17812 0.15273,-0.14514 -0.10508,-0.22565 -0.56828,-0.17745 -0.0971,0.0101 -0.17465,-0.0545 -0.17238,-0.14361 0.002,-0.0891 -0.0871,-0.12959 -0.19865,-0.09 -0.11153,0.0396 -0.27859,-0.0243 -0.37124,-0.14188 -0.13528,-0.17171 -0.19219,-0.17845 -0.28893,-0.0342 -0.0982,0.14641 -0.12,0.14533 -0.1179,-0.006 0.002,-0.11722 -0.0957,-0.15702 -0.26439,-0.10816 -0.17776,0.0515 -0.29661,-0.006 -0.35572,-0.17292 -0.0488,-0.13762 -0.0201,-0.27118 0.0638,-0.2968 0.217,-0.0662 0.57979,-0.4291 0.58373,-0.58383 0.005,-0.2158 -0.5449,-0.72457 -0.69139,-0.63911 -0.0749,0.0437 -0.0978,-0.0133 -0.0509,-0.12671 0.0648,-0.15668 0.009,-0.18821 -0.23326,-0.13145 -0.25289,0.0593 -0.29913,0.0279 -0.22464,-0.15232 0.13878,-0.33584 -0.15678,-0.45236 -0.3983,-0.15702 -0.13236,0.16186 -0.18086,0.17867 -0.13258,0.0459 0.0851,-0.23389 -0.56352,-0.62763 -0.80339,-0.48769 -0.0827,0.0482 -0.10001,0.0158 -0.0404,-0.0754 0.0575,-0.088 0.0375,-0.16163 -0.0445,-0.16372 -0.082,-0.002 -0.15146,0.0912 -0.15442,0.20731 -0.008,0.29797 -0.28607,0.25712 -0.29047,-0.0426 -0.003,-0.20933 -0.0218,-0.20449 -0.12402,0.032 -0.0662,0.15323 -0.10193,0.31344 -0.0793,0.35603 0.0226,0.0426 -0.0815,0.0835 -0.23119,0.091 -0.32925,0.0164 -0.34566,-0.0953 -0.0446,-0.30387 0.17491,-0.12118 0.0508,-0.14974 -0.57094,-0.13139 -0.46928,0.0138 -0.75967,-0.0297 -0.70953,-0.10639 0.0471,-0.0721 -0.0413,-0.10025 -0.19866,-0.0633 -0.16487,0.0387 -0.28178,-0.003 -0.27934,-0.099 0.002,-0.091 -0.0711,-0.12156 -0.16303,-0.0679 -0.1175,0.0686 -0.13311,0.0183 -0.0525,-0.16907 0.0631,-0.14664 0.13142,-0.35254 0.15179,-0.45755 0.0634,-0.32671 0.42409,-0.41334 0.86127,-0.20685 0.22961,0.10844 0.33817,0.2003 0.24125,0.20412 -0.34584,0.0136 -0.17638,0.2886 0.18352,0.29777 0.26476,0.007 0.3463,-0.0487 0.29289,-0.19927 -0.0407,-0.11474 -0.009,-0.24633 0.0696,-0.29243 0.0918,-0.0535 0.0797,-0.1667 -0.0334,-0.31338 -0.14965,-0.19408 -0.14273,-0.21576 0.0447,-0.14019 0.12196,0.0492 0.31261,0.0282 0.42367,-0.0465 0.15949,-0.10737 0.14938,-0.12048 -0.0481,-0.0624 -0.21081,0.062 -0.23381,0.0138 -0.14652,-0.30731 0.057,-0.20949 0.15561,-0.41352 0.21924,-0.4534 0.20711,-0.12979 -0.0102,-0.68619 -0.23664,-0.60586 -0.14686,0.0521 -0.19407,-0.005 -0.15733,-0.18979 0.0384,-0.19329 -0.0233,-0.25781 -0.22976,-0.24031 -0.15525,0.0132 -0.20181,-0.009 -0.10348,-0.0499 0.0983,-0.0406 0.14704,-0.12823 0.10823,-0.19476 -0.0388,-0.0665 0.059,-0.20689 0.21742,-0.31193 0.15839,-0.10503 0.24723,-0.23385 0.19742,-0.28626 -0.0498,-0.0524 0.0309,-0.0932 0.17924,-0.0906 0.22148,0.004 0.23326,-0.0197 0.0657,-0.13172 -0.1339,-0.0895 -0.24043,-0.0808 -0.30986,0.0254 -0.0582,0.089 -0.14502,0.12056 -0.19295,0.0701 -0.0879,-0.0925 0.18843,-0.68236 0.37852,-0.80811 0.15537,-0.10279 0.3496,-0.74346 0.1987,-0.65542 -0.0713,0.0416 -0.20057,-0.0446 -0.28724,-0.1916 -0.14023,-0.23781 -0.11555,-0.26331 0.22416,-0.23163 0.24061,0.0224 0.3704,-0.0298 0.35105,-0.14122 -0.0169,-0.0973 0.0166,-0.1681 0.0744,-0.15746 0.28913,0.0532 0.45835,-0.0257 0.4632,-0.21612 0.003,-0.11611 0.0725,-0.2094 0.15442,-0.20731 0.082,0.002 0.11472,-0.055 0.0728,-0.12695 -0.042,-0.0719 0.004,-0.16079 0.10234,-0.19752 0.10776,-0.0403 0.081,-0.0737 -0.0674,-0.0842 -0.1353,-0.01 -0.24477,-0.066 -0.24326,-0.12538 0.002,-0.0594 -0.21888,-0.10322 -0.48977,-0.0974 -0.27089,0.006 -0.45597,-0.0453 -0.41128,-0.11365 0.0447,-0.0683 -0.0529,-0.12768 -0.21685,-0.13186 -0.16394,-0.004 -0.25733,-0.0699 -0.20752,-0.14612 0.0498,-0.0762 0.0167,-0.1404 -0.0735,-0.1427 -0.0943,-0.002 -0.12391,-0.10144 -0.0696,-0.23294 0.079,-0.19127 0.0587,-0.2005 -0.12433,-0.0563 -0.17952,0.14143 -0.21789,0.13433 -0.21346,-0.0395 0.003,-0.11656 0.13291,-0.24182 0.28875,-0.27836 0.17056,-0.04 0.28637,-0.1848 0.29093,-0.36377 0.006,-0.2504 -0.0538,-0.28596 -0.38155,-0.22526 -0.31931,0.0591 -0.34507,0.0456 -0.14362,-0.0757 0.2281,-0.13735 0.22472,-0.17299 -0.0478,-0.50301 -0.1613,-0.19535 -0.38741,-0.35759 -0.50247,-0.36052 -0.42351,-0.0108 -0.0409,-0.14927 0.52856,-0.19131 0.3429,-0.0253 0.55244,0.0105 0.50307,0.086 -0.0465,0.0712 -0.0213,0.13102 0.0561,0.133 0.0774,0.002 0.17442,-0.0479 0.21558,-0.11088 0.0412,-0.063 0.28343,-0.0973 0.53836,-0.0764 0.25495,0.021 0.53853,-0.0176 0.63019,-0.0857 0.10239,-0.076 0.20046,-0.0658 0.25432,0.0265 0.0594,0.10174 0.17357,0.10708 0.35362,0.0165 0.14627,-0.0735 0.41306,-0.12461 0.59287,-0.11346 0.49958,0.031 2.22795,-0.0791 2.34885,-0.14967 0.0942,-0.0549 1.63541,-0.21159 2.10712,-0.21416 0.24705,-0.001 0.23702,-0.6633 -0.013,-0.8587 -0.11374,-0.0889 -0.21641,-0.33758 -0.22815,-0.55263 -0.0133,-0.24289 -0.0875,-0.36753 -0.19601,-0.32903 -0.10227,0.0363 -0.14235,-0.0162 -0.0967,-0.12674 0.051,-0.12329 -0.0676,-0.22461 -0.34206,-0.29226 -0.46146,-0.11374 -0.78385,-0.42926 -0.64915,-0.63528 0.0485,-0.0742 -0.0376,-0.10268 -0.19746,-0.0652 -0.20199,0.0474 -0.28178,-0.003 -0.27742,-0.17422 0.003,-0.13238 -0.11969,-0.27705 -0.27347,-0.32148 -0.31225,-0.0902 -0.35827,-0.26346 -0.10865,-0.40909 0.10349,-0.0604 0.12521,-0.0354 0.0582,0.0671 -0.0587,0.0898 -0.0544,0.15562 0.01,0.14616 0.30154,-0.0445 0.46704,0.0443 0.46185,0.24793 -0.007,0.29014 0.33339,0.18617 0.40144,-0.12248 0.0288,-0.13042 -2.7e-4,-0.22931 -0.0648,-0.21976 -0.38976,0.0578 -0.60809,-0.0577 -0.60146,-0.31828 0.004,-0.15938 0.0697,-0.24902 0.14591,-0.19921 0.0762,0.0498 0.14184,-0.0398 0.1459,-0.19922 0.004,-0.15938 0.0956,-0.28754 0.20343,-0.28479 0.10783,0.003 0.23628,-0.0923 0.28543,-0.21129 0.0492,-0.11895 0.0307,-0.18202 -0.0411,-0.14015 -0.0718,0.0419 -0.15583,-0.004 -0.18679,-0.10307 -0.031,-0.0986 -0.0425,-0.0679 -0.0256,0.068 0.0169,0.13598 -0.0267,0.24577 -0.0968,0.24399 -0.0702,-0.002 -0.12564,-0.0787 -0.12329,-0.17089 0.002,-0.0922 -0.0885,-0.0474 -0.20178,0.0996 -0.15125,0.19615 -0.1636,0.29498 -0.0464,0.37157 0.0916,0.0599 0.0357,0.0918 -0.13127,0.075 -0.25823,-0.0261 -0.43095,-0.39903 -0.18187,-0.39268 0.0548,0.001 0.14254,-0.18649 0.19489,-0.41753 0.0756,-0.33364 0.16831,-0.4182 0.45057,-0.41101 0.19545,0.005 0.35697,-0.0543 0.35895,-0.13168 0.002,-0.0774 0.13024,-0.13752 0.28506,-0.13357 0.29809,0.008 0.37319,0.21459 0.12944,0.35679 -0.26022,0.1518 -0.0205,0.31692 0.42198,0.29059 0.57603,-0.0343 0.71714,-0.18893 0.20051,-0.21978 -0.40241,-0.024 -0.40346,-0.0262 -0.0557,-0.11567 l 0.3544,-0.0912 -0.31227,-0.18032 c -0.3598,-0.20775 -0.40731,-0.45448 -0.0859,-0.4463 0.12068,0.003 0.17866,0.0679 0.12884,0.14412 -0.0498,0.0762 -0.0235,0.14023 0.0585,0.14231 0.082,0.002 0.15227,-0.12286 0.15622,-0.27768 0.004,-0.17051 0.10099,-0.27908 0.24517,-0.27541 0.20707,0.005 0.20316,-0.0209 -0.0301,-0.20153 -0.21409,-0.1658 -0.28317,-0.17144 -0.34306,-0.028 -0.0456,0.10906 -0.17753,0.13996 -0.33613,0.0787 -0.24541,-0.0948 -0.24641,-0.11488 -0.0167,-0.33322 0.13447,-0.12778 0.33495,-0.23002 0.44553,-0.2272 0.18165,0.005 0.26732,-0.16414 0.22938,-0.45186 -0.008,-0.0583 0.0848,-0.10346 0.20543,-0.10038 0.12068,0.003 0.18448,-0.0543 0.14178,-0.12749 -0.10105,-0.17322 0.17026,-0.33049 0.35819,-0.20763 0.0993,0.0649 0.0915,0.15647 -0.0246,0.28935 -0.12213,0.13975 -0.12547,0.19551 -0.0119,0.1984 0.16504,0.004 0.21408,-0.165 0.17778,-0.61339 -0.0284,-0.35047 0.24202,-0.49775 0.88843,-0.48393 0.31089,0.007 0.51498,-0.0528 0.49659,-0.14467 -0.02,-0.0997 0.27342,-0.15027 0.81334,-0.1402 0.46451,0.009 0.92548,-0.0444 1.02437,-0.11794 0.0989,-0.0735 0.36317,-0.0921 0.58729,-0.0413 0.2901,0.0658 0.46215,0.0245 0.59719,-0.14329 0.10432,-0.12961 0.13214,-0.18923 0.0618,-0.1325 -0.0703,0.0567 -0.29982,-0.17092 -0.50998,-0.50589 -0.21016,-0.33497 -0.38384,-0.55174 -0.38596,-0.48169 -0.002,0.07 -0.12759,0.01 -0.27884,-0.13456 -0.15124,-0.14404 -0.27129,-0.3312 -0.26678,-0.4159 0.005,-0.0847 0.0699,-0.0415 0.14538,0.096 0.0754,0.13747 0.2417,0.25261 0.36944,0.25586 0.17167,0.004 0.19212,-0.0363 0.0784,-0.15599 -0.0846,-0.0891 -0.11597,-0.2536 -0.0697,-0.36566 0.0688,-0.16661 0.10501,-0.16898 0.19842,-0.013 0.0841,0.14042 0.11549,0.11646 0.11906,-0.0908 0.006,-0.35204 -0.31362,-0.81343 -0.47027,-0.67873 -0.0643,0.0552 -0.0686,0.0214 -0.01,-0.0752 0.059,-0.0966 0.16522,-0.13766 0.23615,-0.0913 0.0709,0.0464 0.13056,0.021 0.13253,-0.0564 0.002,-0.0774 -0.056,-0.17971 -0.12889,-0.22734 -0.17799,-0.11638 -0.001,-0.52363 0.32277,-0.74458 0.14445,-0.0984 0.22366,-0.2458 0.17601,-0.32747 -0.0564,-0.0967 0.0292,-0.11017 0.24509,-0.0387 0.27096,0.0897 0.30035,0.0751 0.16048,-0.0794 -0.20805,-0.22989 -0.21438,-0.655448 -0.0107,-0.717638 0.13992,-0.04271 0.17826,-0.285158 0.13464,-0.851197 -0.0113,-0.147209 -0.13742,-0.250822 -0.31218,-0.256561 -0.16848,-0.0056 -0.22781,-0.05196 -0.13952,-0.109172 0.22172,-0.143661 0.36501,-0.565005 0.2236,-0.657458 -0.0663,-0.04338 -0.15107,-4.8e-5 -0.18827,0.09632 -0.0372,0.09636 -0.10366,0.140751 -0.14771,0.09866 -0.044,-0.0421 -0.0217,-0.165751 0.0495,-0.274799 0.10935,-0.16724 0.17397,-0.15603 0.41301,0.07164 0.27675,0.263581 0.2838,0.263628 0.30132,0.0021 0.01,-0.148421 0.0476,-0.188587 0.0844,-0.09009 0.0366,0.09775 0.13134,0.17938 0.21058,0.181401 0.0792,0.0021 0.1103,-0.09149 0.069,-0.207798 -0.0413,-0.116306 -0.03,-0.200848 0.0249,-0.187865 0.055,0.01299 0.28131,-0.04584 0.50298,-0.130718 0.22167,-0.08487 0.46013,-0.116977 0.52993,-0.07134 0.0698,0.04564 0.1287,0.01217 0.13091,-0.07438 0.002,-0.08654 0.062,-0.119412 0.13296,-0.07304 0.0709,0.04637 0.16777,0.02492 0.21523,-0.04766 0.0475,-0.07258 0.19585,-0.12864 0.32977,-0.124576 0.38868,0.0118 0.63097,-0.05959 1.27984,-0.377058 0.33509,-0.163941 0.69702,-0.295841 0.8043,-0.293111 0.10727,0.0027 0.22272,-0.07151 0.25654,-0.164978 0.0658,-0.181742 1.38063,-0.236995 1.37607,-0.05782 -0.001,0.0571 0.17275,0.05981 0.38713,0.006 0.42247,-0.106042 1.31721,-0.06124 1.96479,0.09838 0.33596,0.08281 0.43947,0.04151 0.59888,-0.238961 0.106,-0.186486 0.15669,-0.400854 0.11264,-0.476366 -0.11358,-0.194694 -1.0632,-0.351822 -2.61437,-0.432581 -0.73486,-0.03826 -1.4741,-0.149323 -1.64276,-0.246809 -0.16865,-0.09748 -0.35692,-0.170166 -0.41837,-0.161512 -0.0615,0.0087 -0.34165,0.0024 -0.62266,-0.01397 -0.38459,-0.02233 -0.52736,-0.09976 -0.57736,-0.313042 -0.054,-0.230166 0.004,-0.282405 0.30753,-0.278304 0.3572,0.0048 0.3621,-0.0044 0.10923,-0.206087 -0.23676,-0.188814 -0.12851,-0.204189 1.02407,-0.14547 0.70885,0.03611 1.28812,0.104457 1.28727,0.151876 -8e-4,0.04742 0.17312,0.07035 0.38662,0.05095 0.9558,-0.08683 2.41315,-0.169993 2.95175,-0.168426 0.32369,0.0011 0.55887,-0.04912 0.52263,-0.111236 -0.0362,-0.06212 0.0489,-0.119404 0.18924,-0.127297 0.55485,-0.03121 0.68808,-0.05368 0.93372,-0.157451 0.14036,-0.05929 0.38252,-0.342429 0.53814,-0.629181 0.28724,-0.529289 0.74757,-0.829459 0.83464,-0.54424 0.0333,0.109058 0.11156,0.105611 0.26016,-0.01146 0.13474,-0.106145 0.24598,-0.115829 0.30385,-0.02646 0.0963,0.148772 2.36713,0.207859 2.51694,0.06553 0.0481,-0.04569 0.16059,-0.01913 0.25002,0.05903 0.1726,0.150826 1.02249,0.148955 1.28266,-0.0028 0.0852,-0.04972 0.37201,-0.02447 0.6373,0.0561 0.26529,0.08058 1.6503,0.208362 3.0778,0.283969 1.4275,0.07561 3.41798,0.189794 4.42329,0.253741 5.41822,0.344662 7.07292,0.423003 10.444,0.494464 2.64826,0.05614 3.69364,0.123081 3.69075,0.236352 -0.003,0.114298 0.048,0.117002 0.18418,0.0098 0.19008,-0.149743 1.03832,-0.16788 3.47904,-0.07439 0.73512,0.02816 1.40004,0.04752 1.47762,0.04302 0.0776,-0.0045 0.83923,-0.05085 1.69257,-0.103002 0.85335,-0.05215 1.65621,-0.05939 1.78414,-0.01609 0.12793,0.04331 0.2672,0.0258 0.3095,-0.03889 0.0423,-0.06469 0.60351,-0.118158 1.24713,-0.118806 0.64363,-5.29e-4 1.53403,-0.0559 1.97866,-0.12279 0.44464,-0.06688 1.61863,-0.129302 2.60888,-0.138708 0.99025,-0.0094 2.24439,-0.02986 2.78698,-0.04542 0.54259,-0.01556 1.10345,0.03581 1.24635,0.114152 0.1429,0.07834 0.22614,0.08471 0.18498,0.01416 -0.0424,-0.07267 0.5159,-0.107989 1.28776,-0.08148 0.74942,0.02574 1.5861,-0.02323 1.85927,-0.108823 0.37502,-0.117499 0.52105,-0.115099 0.59612,0.0098 0.068,0.113126 0.10136,0.116446 0.10554,0.01048 0.004,-0.09537 0.39864,-0.157083 1.02726,-0.160555 1.39672,-0.0077 5.64799,0.08599 6.50971,0.143465 0.38663,0.0258 1.27395,0.02199 1.97183,-0.0084 1.68367,-0.07339 4.29657,-0.04965 4.2943,0.03903 -0.003,0.10949 0.67363,0.07681 1.80387,-0.08714 0.56698,-0.08224 1.20117,-0.100139 1.40931,-0.03976 0.48744,0.141399 1.43258,0.200502 1.43526,0.08975 0.001,-0.04695 0.17623,-0.08075 0.38909,-0.07511 3.93686,0.1042 11.367812,0.02937 11.618692,-0.116989 0.0605,-0.03529 0.10855,-0.0081 0.10681,0.06051 -0.002,0.06857 0.18675,0.101719 0.41889,0.07367 0.23213,-0.02805 0.53247,-0.0013 0.66741,0.0595 0.31059,0.139877 0.87238,0.196876 0.80519,0.08169 -0.0279,-0.0478 1.03846,-0.0459 2.36966,0.0042 1.3312,0.05012 2.42007,0.101978 2.41973,0.115239 0,0.01326 0.39493,0.04671 0.87838,0.07434 0.48342,0.02763 0.87997,0.0094 0.88121,-0.0405 10e-4,-0.0499 0.22297,-0.03501 0.49273,0.0331 0.26979,0.06811 0.51914,0.08002 0.55415,0.02648 0.035,-0.05355 0.63738,-0.07913 1.33859,-0.05686 0.76015,0.02413 1.27725,-0.01633 1.28067,-0.100195 0.003,-0.08295 0.0466,-0.07676 0.10523,0.01508 0.12332,0.193064 1.18684,0.210251 1.33302,0.02156 0.0713,-0.09207 0.10648,-0.09117 0.10548,0.0027 0,0.07744 0.2362,0.139438 0.52674,0.137785 0.29055,-0.0016 0.67353,0.05564 0.85106,0.12732 0.19304,0.07795 0.42819,0.07731 0.58511,-0.0016 0.25289,-0.127161 0.84376,-0.166272 3.8836,-0.257061 0.77513,-0.02315 2.04413,-0.08294 2.81997,-0.132861 0.77583,-0.04992 2.51912,-0.07072 3.87398,-0.04621 1.35487,0.02453 2.71793,0.0034 3.02903,-0.04679 0.31111,-0.05025 2.02259,-0.06599 3.8033,-0.03499 4.18213,0.0728 7.32945,0.03906 8.58308,-0.09201 0.54909,-0.05741 1.72906,-0.180866 2.6222,-0.274349 0.89311,-0.09348 2.38571,-0.223544 3.31685,-0.289031 0.93115,-0.06549 1.9788,-0.143523 2.3281,-0.173413 1.14439,-0.09792 2.30873,-0.042 3.24994,0.15608 0.59352,0.124907 2.39835,0.231008 5.03404,0.295924 2.25985,0.05567 4.15253,0.128672 4.20595,0.162247 0.0534,0.03358 2.43937,0.162068 5.3021,0.285531 2.86274,0.123465 5.71088,0.267192 6.3292,0.319397 3.47165,0.293108 6.10729,0.413776 11.88623,0.544208 0.81283,0.01834 1.6990304,0.05889 1.9693204,0.0901 0.58461,0.0675 3.29067,0.258773 5.83392,0.412374 5.49663,0.331968 7.54746,0.438894 11.25144,0.586632 2.2439396,0.0895 4.3006896,0.202663 4.5705396,0.25147 0.26986,0.04881 0.99673,0.124844 1.61524,0.168969 1.14466,0.08165 2.45151,0.269486 2.61998,0.37656 0.0512,0.03255 0.52471,0.103216 1.05221,0.157025 0.52752,0.05381 1.33757,0.167738 1.80012,0.253166 0.46256,0.08543 1.03037,0.186193 1.26176,0.223912 0.23141,0.03772 0.93456,0.215146 1.56256,0.394287 0.62799,0.179139 1.27375,0.329073 1.43501,0.333182 0.16129,0.0041 0.29187,0.06025 0.29022,0.124748 -0.002,0.06451 0.0762,0.120013 0.17289,0.123352 0.95036,0.03278 3.22155,0.307213 3.57779,0.432297 0.24821,0.08715 0.58036,0.349864 0.73813,0.583806 0.31153,0.461981 1.15489,0.935326 1.93268,1.084786 0.97317,0.186987 2.65774,0.386779 3.01085,0.357093 0.19842,-0.01667 0.35902,0.03799 0.3569,0.121478 -0.003,0.08349 0.04,0.11009 0.0937,0.05911 0.0537,-0.05098 0.22641,0.0347 0.38389,0.190387 0.1575,0.1557 0.70858,0.51703 1.22462,0.80295 0.75179,0.41655 1.13644,0.53617 1.93546,0.60188 1.05529,0.0868 1.24179,0.21217 1.12355,0.75524 -0.0753,0.34611 -0.6426,0.61689 -1.25942,0.60118 -0.1774,-0.005 -0.36332,0.0541 -0.41312,0.13031 -0.0498,0.0762 -0.30538,0.13305 -0.5679,0.12636 -0.74118,-0.0189 -1.90632,0.23822 -1.90693,0.42079 0,0.30022 1.06336,0.69416 2.11106,0.78134 0.56755,0.0472 1.88592,0.14505 2.92973,0.21738 2.1082,0.1461 2.32891,0.19003 2.43332,0.48424 0.1539,0.43378 -1.81624,1.84561 -3.42162,2.45198 -0.51798,0.19565 -0.78089,0.39575 -0.96168,0.73188 -0.31025,0.57686 -0.17555,0.85842 0.65958,1.37888 0.32406,0.20194 0.58671,0.46402 0.58369,0.5824 -0.003,0.11837 0.0871,0.31264 0.20027,0.43171 0.32086,0.33764 0.23331,0.67643 -0.24339,0.94189 -0.24024,0.13378 -0.71493,0.49295 -1.05487,0.79814 -0.51747,0.46458 -0.73059,0.56046 -1.30955,0.5891 -0.50941,0.0252 -0.75552,0.11458 -0.9347,0.33945 -0.13377,0.16788 -0.21402,0.35529 -0.17835,0.41645 0.0357,0.0612 2e-5,0.10956 -0.0792,0.10755 -0.0792,-0.002 -0.22185,0.13693 -0.31692,0.30879 -0.095,0.17186 -0.12388,0.2692 -0.0641,0.21632 0.1488,-0.13163 0.52716,0.28694 0.41476,0.45886 -0.0523,0.08 0.0172,0.11085 0.16521,0.0734 0.14046,-0.0355 0,0.055 -0.3147,0.20115 -0.31353,0.14617 -0.77184,0.26228 -1.01841,0.25804 -0.24659,-0.004 -0.61235,0.0499 -0.81282,0.12033 -0.26805,0.0942 -0.36447,0.0824 -0.36441,-0.0445 2e-5,-0.0949 -0.0659,-0.0657 -0.1465,0.0648 -0.27694,0.44846 -0.0228,0.94691 0.67365,1.32256 0.36103,0.19465 0.75107,0.50675 0.8668,0.69356 0.11571,0.1868 0.45784,0.42071 0.76028,0.51979 1.12721,0.36925 1.28479,1.10322 0.29216,1.36074 -0.61696,0.16005 -0.92081,0.60758 -0.7475,1.10091 0.0902,0.2567 0.0852,0.37325 -0.0159,0.37068 -0.25998,-0.007 -0.51737,0.33778 -0.51125,0.68415 0.006,0.34254 -0.005,0.34808 -1.19764,0.59194 -0.19465,0.0398 -0.54814,0.23347 -0.78552,0.43036 -0.23741,0.19689 -0.60809,0.4442 -0.82378,0.54959 -0.21572,0.10539 -0.3945,0.28276 -0.39733,0.39416 -0.007,0.26134 -0.51781,0.51901 -1.12646,0.56783 -0.66545,0.0534 -0.94033,0.21946 -0.97782,0.5908 -0.0312,0.30953 0.50927,0.98493 0.79401,0.99218 0.17402,0.004 0.95258,0.83371 0.94811,1.00987 -0.006,0.24083 -0.5176,0.39327 -1.50164,0.44756 -0.5366,0.0296 -1.29404,0.1131 -1.68316,0.18555 -0.64436,0.11997 -2.94394,0.45136 -3.46809,0.49979 -0.21923,0.0202 -0.32768,0.52016 -0.11404,0.5256 0.0635,0.002 0.0492,0.11967 -0.0319,0.26233 -0.0811,0.14266 -0.10436,0.30473 -0.0517,0.36014 0.17645,0.18569 0.0671,1.97212 -0.13289,2.17023 -0.10438,0.10341 -0.48157,0.20025 -0.8382,0.21518 -0.57555,0.0241 -0.96069,0.23546 -0.83461,0.45801 0.0244,0.0431 -0.0461,0.15768 -0.15661,0.25474 -0.11051,0.0971 -0.19976,0.12964 -0.19831,0.0724 0.001,-0.0572 -0.0737,-0.0315 -0.16709,0.0572 -0.12391,0.11774 -0.219,0.1183 -0.352,0.002 -0.13308,-0.11629 -0.29743,-0.11496 -0.60904,0.005 -0.71835,0.27633 -0.49541,0.70591 0.46972,0.90513 1.07948,0.22283 1.31955,0.32415 1.14994,0.48532 -0.046,0.0438 -1.04792,0.0754 -2.22644,0.0703 -2.50631,-0.0108 -2.79574,0.0967 -3.02633,1.12443 -0.0746,0.33238 -0.29164,0.83815 -0.48241,1.12393 -0.31513,0.47212 -0.56446,1.08828 -0.58767,1.45224 -0.005,0.0773 -0.22244,0.15556 -0.48335,0.17383 -0.32539,0.0228 -0.49866,0.11739 -0.55178,0.30123 -0.0426,0.1474 -0.13267,0.23188 -0.2002,0.18773 -0.0675,-0.0442 -0.12442,-0.0159 -0.12642,0.0628 -0.002,0.0787 -0.29436,0.30368 -0.64968,0.49993 -1.00806,0.55678 -1.15829,1.02803 -0.42368,1.32896 0.34361,0.14075 0.35756,0.24696 0.11002,0.83658 -0.18152,0.43232 0.2748,0.72348 1.78303,1.13772 1.46004,0.401 1.8667,0.66509 1.43905,0.9345 -0.26557,0.1673 -2.17256,-0.0455 -5.17172,-0.57717 -1.35873,-0.24086 -1.9327496,-0.14563 -2.2482096,0.373 -0.31445,0.51694 -0.63878,0.66403 -1.57477,0.71416 -0.77572,0.0416 -1.50579,0.40686 -1.51473,0.75797 -0.006,0.21533 0.61433,0.43444 1.33253,0.47105 0.53998,0.0275 1.17377,0.41459 0.85769,0.5238 -0.0991,0.0342 -0.2764,0.15372 -0.39405,0.26552 -0.11764,0.1118 -0.21294,0.16546 -0.21177,0.11924 0.004,-0.17023 -0.86252,0.34183 -1.0382,0.61328 -0.21888,0.33818 -0.95926,0.79311 -1.2509,0.76861 -0.7249,-0.0609 -1.68957,0.01 -1.69249,0.12409 -0.006,0.21822 0.72081,0.86179 0.87269,0.77319 0.0765,-0.0446 0.0948,-0.0134 0.0407,0.0693 -0.0541,0.0827 -0.0339,0.19244 0.0447,0.24388 0.0787,0.0514 0.10333,0.15427 0.0548,0.22854 -0.0485,0.0743 -0.012,0.23193 0.0814,0.35038 0.26528,0.33672 -0.005,0.46443 -1.08141,0.51121 -0.54163,0.0236 -1.27139,0.0981 -1.62166,0.16575 -0.35029,0.0676 -1.527,0.237 -2.61493,0.37642 -1.08796,0.1394 -2.33371,0.36527 -2.76836,0.50193 -0.44425,0.13968 -1.17206,0.23874 -1.66229,0.22625 -0.47962,-0.0122 -1.33365,0.0948 -1.89788,0.23782 -0.96866,0.24554 -1.30036,0.2489 -5.9497904,0.0602 -2.70818,-0.10994 -5.46155,-0.24149 -6.11863,-0.29234 -1.71239,-0.13252 -3.81712,-0.33848 -4.10603,-0.40178 -0.13614,-0.0298 -1.78233,-0.13658 -3.65826,-0.23723 -2.68229,-0.1439 -3.81772,-0.14637 -5.31631,-0.0116 -1.04806,0.0943 -2.97395,0.18265 -4.27979,0.19639 -1.30581,0.0137 -2.60581,0.0472 -2.88889,0.0744 -0.977,0.0938 -4.32776,0.23149 -6.29403,0.25858 -1.08477,0.0149 -3.05048,0.0595 -4.36823,0.099 -1.31776,0.0395 -3.98023,0.0703 -5.91659,0.0683 -1.93635,-0.002 -3.71117,0.0125 -3.94405,0.032 -0.23287,0.0195 -1.82418,0.0405 -3.53627,0.0466 -1.71208,0.006 -3.29699,0.0287 -3.52202,0.0502 -0.43286,0.0414 -1.49914,0.0875 -5.27256,0.22767 -2.96176,0.11005 -5.18588,0.25642 -7.02231,0.46216 -0.79854,0.0895 -1.69387,0.15649 -1.9896,0.14896 -0.29572,-0.008 -0.72282,0.0411 -0.94908,0.10808 -0.22627,0.067 -0.81177,0.14454 -1.30112,0.17237 -0.48937,0.0278 -1.50671,0.16047 -2.26078,0.29477 -0.7541,0.13429 -1.75192,0.26827 -2.21741,0.29773 -0.46549,0.0295 -1.32291,0.103 -1.90535,0.16343 -0.58247,0.0604 -1.43984,0.132 -1.90526,0.15905 -0.46542,0.0271 -1.53545,0.12923 -2.37783,0.22706 -0.84237,0.0978 -2.04912,0.20227 -2.68167,0.23208 -0.63254,0.0298 -1.51427,0.0925 -1.95939,0.13926 -0.44512,0.0468 -1.58664,0.078 -2.536702,0.0693 -0.95006,-0.009 -2.20385,0.03 -2.7862,0.0859 -1.14961,0.11036 -3.59595,0.18083 -5.49639,0.15832 -0.65818,-0.008 -1.48304,0.0319 -1.83303,0.0883 -0.34999,0.0564 -2.75883,0.0821 -5.35298,0.0572 -2.59415,-0.0249 -4.85336,-0.0207 -5.02047,0.009 -0.16711,0.03 -1.53055,0.0661 -3.02988,0.0803 -1.49933,0.0142 -3.04322,0.0376 -3.43087,0.0521 -0.38765,0.0145 -1.81412,0.0369 -3.16993,0.0497 -1.35581,0.0128 -3.00449,0.0508 -3.66373,0.0846 -0.65923,0.0337 -1.26151,0.0428 -1.33838,0.0201 -0.0769,-0.0227 -1.05984,0.004 -2.18437,0.059 -1.12452,0.0551 -2.67879,0.11896 -3.45393,0.14185 -0.77515,0.0229 -1.63168,0.0619 -1.90341,0.0867 -0.27173,0.0248 -1.34983,0.064 -2.39577,0.0871 -1.04595,0.0231 -1.93414,0.0609 -1.97376,0.0839 -0.0396,0.0231 -0.86472,0.0626 -1.83357,0.0879 -0.96885,0.0253 -1.88886,0.0682 -2.04446,0.0953 -0.28497,0.0497 -10.25878,-0.0217 -14.57321,-0.10423 -1.2774,-0.0245 -3.39803,-0.11776 -4.7125,-0.20738 z m -28.56193,-18.15029 c 0.0702,-0.003 0.0139,-0.13741 -0.12492,-0.29896 -0.21617,-0.25144 -0.39402,-0.29144 -1.23574,-0.27793 -0.54078,0.009 -1.0073,0.0829 -1.0367,0.16485 -0.077,0.21466 0.89293,0.47903 1.63532,0.44573 0.34895,-0.0157 0.69187,-0.0308 0.76204,-0.0337 z m 3.51654,-7.60244 c 7.9e-4,-0.0341 -0.0617,-0.0637 -0.13916,-0.0656 -0.0774,-0.002 -0.14245,0.0635 -0.14454,0.14546 -0.002,0.082 0.0605,0.11151 0.13916,0.0656 0.0786,-0.0459 0.14367,-0.11132 0.14454,-0.14546 z m -7.0707,-4.38161 c 8e-4,-0.0304 -0.0959,-0.0955 -0.21487,-0.14469 -0.12402,-0.0512 -0.18112,-0.0291 -0.13384,0.0519 0.0793,0.13583 0.34581,0.20674 0.34871,0.0928 z m 1.67986,-4.44597 c -0.13548,-0.1415 -0.15206,-0.12575 -0.0808,0.0768 0.0493,0.14015 0.12602,0.22026 0.17045,0.17804 0.0444,-0.0422 0.004,-0.1569 -0.0897,-0.25481 z m 1.16892,-1.66018 c -0.13548,-0.1415 -0.15206,-0.12574 -0.0808,0.0768 0.0493,0.14015 0.12603,0.22026 0.17046,0.17804 0.0444,-0.0422 0.004,-0.1569 -0.0897,-0.25481 z m -1.05244,-0.83423 c -0.0459,-0.0786 -0.11133,-0.14366 -0.14546,-0.14453 -0.0341,-8e-4 -0.0637,0.0618 -0.0656,0.13915 -0.002,0.0774 0.0635,0.14245 0.14546,0.14454 0.082,0.002 0.11151,-0.0605 0.0657,-0.13916 z m 5.75649,-6.56855 c -0.10056,-0.0432 -0.22207,-0.0413 -0.27003,0.004 -0.048,0.0456 0.0343,0.081 0.18284,0.0786 0.16412,-0.003 0.19832,-0.0351 0.0872,-0.0829 z m -0.017,-0.36922 c -0.2108,-0.18323 -0.54446,-0.74021 -0.54034,-0.902 0.001,-0.0492 0.0968,-0.007 0.21226,0.094 0.27356,0.23907 0.43963,0.0789 0.21449,-0.20693 -0.19792,-0.25124 -0.56303,-0.0655 -0.57211,0.29097 -0.003,0.1112 -0.0545,0.16989 -0.11492,0.13042 -0.0604,-0.0395 -0.12209,0.0503 -0.13716,0.19943 -0.0183,0.18169 0.0626,0.2735 0.24534,0.27816 0.15,0.004 0.27112,0.0703 0.26915,0.14768 -0.002,0.0774 0.13896,0.14236 0.31319,0.14433 0.27182,0.003 0.28744,-0.0219 0.1101,-0.17604 z m -0.83676,-0.32258 c 8e-4,-0.0341 0.0659,-0.0996 0.14454,-0.14546 0.0786,-0.0459 0.14124,-0.0163 0.13916,0.0657 -0.002,0.082 -0.0671,0.14743 -0.14454,0.14546 -0.0774,-0.002 -0.14003,-0.0315 -0.13916,-0.0657 z m 2.5636,-2.86523 c 0.013,-0.17394 -0.009,-0.23748 -0.0489,-0.14119 -0.0399,0.0963 -0.12885,0.13826 -0.19765,0.0933 -0.0688,-0.045 -0.0899,0.0175 -0.0469,0.13876 0.11397,0.32122 0.26606,0.27413 0.29338,-0.0908 z m -0.72105,-0.13335 c 0.15772,-0.24123 -0.0135,-0.29753 -0.21243,-0.0699 -0.11442,0.13093 -0.12715,0.2114 -0.0338,0.21378 0.0823,0.002 0.19313,-0.0627 0.24625,-0.14392 z m 4.69127,-4.71469 c 7.9e-4,-0.0304 -0.0927,-0.0942 -0.20764,-0.1417 -0.11497,-0.0475 -0.2106,-0.0251 -0.21251,0.0499 -0.002,0.075 0.0915,0.13875 0.20763,0.14171 0.11611,0.003 0.21174,-0.0195 0.21252,-0.0499 z m -23.75485,36.91922 c 0.002,-0.0728 0.0677,-0.16996 0.14633,-0.21583 0.0786,-0.0459 0.14044,0.0154 0.13736,0.13602 -0.003,0.12067 -0.0689,0.2178 -0.14632,0.21582 -0.0774,-0.002 -0.13922,-0.0632 -0.13737,-0.13601 z m 6.03247,-11.4264 c 0.0839,-0.0797 0.23485,-0.1151 0.33553,-0.0787 0.10451,0.0378 0.0391,0.1 -0.15249,0.1449 -0.23566,0.0553 -0.29014,0.0355 -0.18304,-0.0662 z m 2.00232,0.0747 c -0.1445,-0.0987 -0.15399,-0.14644 -0.0312,-0.15707 0.30949,-0.0268 0.38488,-0.0472 0.55743,-0.15084 0.0929,-0.0558 0.21283,-0.0261 0.26653,0.0659 0.061,0.10453 0.0376,0.12812 -0.0623,0.0628 -0.0948,-0.0619 -0.1622,-0.0152 -0.16551,0.11486 -0.006,0.24755 -0.25519,0.27589 -0.56496,0.0643 z m -0.7166,-0.33525 c 0.10922,-0.1038 0.2121,-0.10892 0.30136,-0.015 0.0893,0.0939 0.0326,0.14773 -0.16584,0.1576 -0.22697,0.0113 -0.26042,-0.0239 -0.13552,-0.1426 z m 3.59432,-2.06427 c 0.003,-0.12068 0.0679,-0.17866 0.14411,-0.12885 0.0762,0.0498 0.137,0.15017 0.13515,0.223 -0.002,0.0728 -0.0667,0.13082 -0.14411,0.12885 -0.0774,-0.002 -0.13823,-0.10232 -0.13515,-0.223 z m 0.21646,-2.34824 c 0.24067,-0.43526 0.26502,-0.44747 0.23156,-0.11614 -0.0163,0.16123 -0.11353,0.32292 -0.21611,0.35931 -0.14888,0.0528 -0.152,0.004 -0.0154,-0.24317 z m 0.96937,-5.14192 c -0.11775,-0.077 -0.0498,-0.14153 0.21034,-0.19982 0.47154,-0.10566 0.56172,-0.0392 0.22008,0.16228 -0.14108,0.0832 -0.33477,0.10008 -0.43042,0.0375 z m 3.08617,-9.44776 c 0.048,-0.0456 0.16947,-0.0475 0.27003,-0.004 0.11113,0.0478 0.0769,0.0803 -0.0872,0.0829 -0.14851,0.002 -0.23079,-0.0331 -0.18284,-0.0786 z m 0.43655,-0.5522 c 0.048,-0.0456 0.16948,-0.0475 0.27004,-0.004 0.11112,0.0478 0.0769,0.0803 -0.0872,0.0829 -0.14852,0.002 -0.2308,-0.0331 -0.18284,-0.0786 z m 2.55222,-1.73936 c -0.002,-0.14852 0.0331,-0.23079 0.0786,-0.18284 0.0456,0.048 0.0475,0.16948 0.004,0.27004 -0.0478,0.11112 -0.0803,0.0769 -0.0829,-0.0872 z m 5.114,-7.697506 c -0.12476,-0.08521 -0.14071,-0.140965 -0.04,-0.139692 0.0922,0.0013 0.2052,0.06644 0.25107,0.145068 0.10353,0.17748 0.0548,0.176242 -0.21111,-0.0054 z"
       id="path2987"
       style="fill:#ffffff;stroke-width:0.264583" />
  </g>
</svg>
